<svg width="24" height="24" viewBox="0 0 24 24" fill="none" xmlns="http://www.w3.org/2000/svg">
<path d="M21.68 3.04004H2.31996C1.11996 3.04004 0.0799561 4.08004 0.0799561 5.28004V18.64C0.0799561 19.84 1.11996 20.88 2.31996 20.88H21.6C22.8 20.88 23.84 19.84 23.84 18.64V5.28004C23.92 4.08004 22.88 3.04004 21.68 3.04004ZM22.72 18.72C22.72 19.28 22.24 19.76 21.68 19.76H2.31996C1.75996 19.76 1.27996 19.28 1.27996 18.72V5.28004C1.27996 4.72004 1.75996 4.24004 2.31996 4.24004H21.6C22.16 4.24004 22.64 4.72004 22.64 5.28004V18.72H22.72ZM18.8 7.52004L12.08 13.84L5.35996 7.52004C5.11996 7.28004 4.71996 7.28004 4.47996 7.52004C4.23996 7.76004 4.23996 8.16004 4.47996 8.40004L8.47996 12.16L5.43996 15.2C5.19996 15.44 5.19996 15.84 5.43996 16.08C5.51996 16.16 5.67996 16.24 5.83996 16.24C5.99996 16.24 6.15996 16.16 6.23996 16.08L9.35996 12.96L11.68 15.12C11.76 15.2 11.92 15.28 12.08 15.28C12.24 15.28 12.4 15.2 12.48 15.12L14.8 12.88C14.8 12.88 14.8 12.96 14.88 12.96L18 16.08C18.08 16.16 18.24 16.24 18.4 16.24C18.56 16.24 18.72 16.16 18.8 16.08C19.04 15.84 19.04 15.44 18.8 15.2L15.68 12.08C15.68 12.08 15.68 12.08 15.6 12.08L19.52 8.40004C19.76 8.16004 19.76 7.76004 19.52 7.52004C19.28 7.28004 19.04 7.28004 18.8 7.52004Z" fill="#A4A4A4"/>
</svg>
